# xmcd
#
# Track frame offsets:
#	150
#	13258
#	27845
#	42738
#	60600
#	78265
#	104873
#	125535
#
# Disc length: 1908 seconds
#
# Revision: 0
# Processed by: cddbd v1.5.2PL0 Copyright (c) Steve Scherf et al.
# Submitted via: dBpowerAMP V4.0
#
DISCID=6d077208
DTITLE=Håkon Gamles Blues Band - Demo 1998
DYEAR=1998
DGENRE=Blues
TTITLE0=I Let You Go
TTITLE1=Big Sweet Mama
TTITLE2=You Leave Me Behind
TTITLE3=Get Back Boogie
TTITLE4=Don't Know What Comes Tomorrow
TTITLE5=Very Low Down And Worried Sick Blues
TTITLE6=Chase The Demons
TTITLE7=The Sun Is Shining
EXTD=
EXTT0=
EXTT1=
EXTT2=
EXTT3=
EXTT4=
EXTT5=
EXTT6=
EXTT7=
PLAYORDER=
